<svg width="243" height="58" viewBox="0 0 243 58" fill="none" xmlns="http://www.w3.org/2000/svg">
<path d="M0 29.9683L5.86729 0L15.4355 21.6639L25.3467 0L30.6182 29.9683H26.3035L23.6136 13.1427L15.3633 31.2501L7.34766 13.1247L4.35082 29.9683H0Z" fill="#333333"/>
<path d="M36.2588 15.9049C36.2588 11.9813 37.697 8.61138 40.5735 5.79508C43.4379 2.97878 46.8801 1.57063 50.8999 1.57063C54.8716 1.57063 58.2777 2.99082 61.1181 5.83119C63.9705 8.67156 65.3967 12.0836 65.3967 16.0674C65.3967 20.0752 63.9644 23.4752 61.1 26.2674C58.2235 29.0717 54.7513 30.4738 50.6833 30.4738C47.0847 30.4738 43.8532 29.2281 40.9887 26.7368C37.8354 23.9807 36.2588 20.37 36.2588 15.9049ZM40.5013 15.959C40.5013 19.0401 41.5363 21.5736 43.6064 23.5594C45.6645 25.5453 48.0415 26.5382 50.7375 26.5382C53.6621 26.5382 56.1294 25.5272 58.1393 23.5053C60.1492 21.4592 61.1542 18.9679 61.1542 16.0313C61.1542 13.0585 60.1612 10.5671 58.1754 8.55722C56.2016 6.53526 53.7584 5.52428 50.8458 5.52428C47.9452 5.52428 45.496 6.53526 43.4981 8.55722C41.5002 10.5551 40.5013 13.0224 40.5013 15.959Z" fill="#333333"/>
<path d="M70.4053 15.9049C70.4053 11.9813 71.8436 8.61138 74.7201 5.79508C77.5845 2.97878 81.0266 1.57063 85.0465 1.57063C89.0182 1.57063 92.4242 2.99082 95.2646 5.83119C98.117 8.67156 99.5432 12.0836 99.5432 16.0674C99.5432 20.0752 98.111 23.4752 95.2466 26.2674C92.3701 29.0717 88.8978 30.4738 84.8299 30.4738C81.2313 30.4738 77.9997 29.2281 75.1353 26.7368C71.982 23.9807 70.4053 20.37 70.4053 15.9049ZM74.6478 15.959C74.6478 19.0401 75.6829 21.5736 77.753 23.5594C79.8111 25.5453 82.1881 26.5382 84.884 26.5382C87.8086 26.5382 90.2759 25.5272 92.2858 23.5053C94.2958 21.4592 95.3007 18.9679 95.3007 16.0313C95.3007 13.0585 94.3078 10.5671 92.3219 8.55722C90.3481 6.53526 87.9049 5.52428 84.9923 5.52428C82.0918 5.52428 79.6426 6.53526 77.6447 8.55722C75.6468 10.5551 74.6478 13.0224 74.6478 15.959Z" fill="#333333"/>
<path d="M105.942 29.9683V0.198585L126.27 21.4653V2.09417H130.476V31.6653L110.148 10.4528V29.9683H105.942Z" fill="#333333"/>
<path d="M142.49 2.09417V26.0147H150.686V29.9683H138.283V2.09417H142.49Z" fill="#333333"/>
<path d="M159.991 2.09417V29.9683H155.785V2.09417H159.991Z" fill="#333333"/>
<path d="M182.132 15.4535H193.65V16.3743C193.65 18.4684 193.404 20.3219 192.91 21.9346C192.429 23.427 191.616 24.8232 190.473 26.123C187.885 29.0356 184.594 30.4919 180.598 30.4919C176.698 30.4919 173.358 29.0837 170.578 26.2674C167.798 23.4391 166.408 20.0451 166.408 16.0854C166.408 12.0415 167.822 8.61138 170.65 5.79508C173.479 2.96674 176.921 1.55258 180.977 1.55258C183.155 1.55258 185.189 1.99789 187.079 2.88851C188.884 3.77914 190.659 5.2234 192.405 7.22128L189.408 10.0917C187.121 7.04677 184.335 5.52428 181.049 5.52428C178.1 5.52428 175.627 6.54128 173.629 8.57527C171.631 10.5732 170.632 13.0765 170.632 16.0854C170.632 19.1906 171.746 21.7481 173.972 23.758C176.054 25.6235 178.311 26.5563 180.742 26.5563C182.812 26.5563 184.672 25.8582 186.321 24.4621C187.97 23.0539 188.89 21.369 189.083 19.4072H182.132V15.4535Z" fill="#333333"/>
<path d="M204.274 12.9983H216.297V2.09417H220.503V29.9683H216.297V16.952H204.274V29.9683H200.067V2.09417H204.274V12.9983Z" fill="#333333"/>
<path d="M235.983 6.04783V29.9683H231.776V6.04783H225.368V2.09417H242.374V6.04783H235.983Z" fill="#333333"/>
<path d="M77.542 57.6981V43.1616H79.5478V49.3946H85.9102V43.1616H87.916V57.6981H85.9102V51.0769H79.5478V57.6981H77.542Z" fill="#333333"/>
<path d="M106.831 58.0001C104.904 58.0001 103.437 57.3602 102.431 56.0806C101.439 54.7865 100.943 52.9029 100.943 50.4299C100.943 47.9424 101.439 46.0588 102.431 44.7791C103.437 43.4995 104.904 42.8596 106.831 42.8596C108.757 42.8596 110.217 43.4995 111.209 44.7791C112.215 46.0588 112.719 47.9424 112.719 50.4299C112.719 52.9029 112.215 54.7865 111.209 56.0806C110.217 57.3602 108.757 58.0001 106.831 58.0001ZM106.831 56.2747C108.11 56.2747 109.066 55.793 109.699 54.8296C110.332 53.8663 110.648 52.3997 110.648 50.4299C110.648 48.46 110.332 46.9934 109.699 46.0301C109.066 45.0667 108.11 44.585 106.831 44.585C105.551 44.585 104.595 45.0667 103.962 46.0301C103.329 46.9934 103.013 48.46 103.013 50.4299C103.013 52.3997 103.329 53.8663 103.962 54.8296C104.595 55.793 105.551 56.2747 106.831 56.2747Z" fill="#333333"/>
<path d="M125.745 57.6981V43.1616H128.29L132.733 53.665L137.175 43.1616H139.72V57.6981H137.887V45.6419L133.682 55.4767H131.762L127.578 45.7713V57.6981H125.745Z" fill="#333333"/>
<path d="M153.437 57.6981V43.1616H162.15V44.8439H155.421V49.4593H161.158V51.1416H155.421V56.0159H162.215V57.6981H153.437Z" fill="#333333"/>
</svg>
